<svg width="960" height="640" viewBox="0 0 960 640" fill="none" xmlns="http://www.w3.org/2000/svg">
  <defs>
    <linearGradient id="aibg" x1="80" y1="80" x2="860" y2="560" gradientUnits="userSpaceOnUse">
      <stop stop-color="#F9FCFF" />
      <stop offset="1" stop-color="#EAF4FF" />
    </linearGradient>
    <linearGradient id="aiCard" x1="180" y1="186" x2="380" y2="300" gradientUnits="userSpaceOnUse">
      <stop stop-color="#FFFFFF" />
      <stop offset="1" stop-color="#F3F9FF" />
    </linearGradient>
    <filter id="aiShadow" x="-20%" y="-20%" width="140%" height="140%">
      <feDropShadow dx="0" dy="18" stdDeviation="20" flood-color="#2D4DF5" flood-opacity="0.12" />
    </filter>
  </defs>
  <rect width="960" height="640" rx="40" fill="url(#aibg)"/>
  <circle cx="760" cy="176" r="126" fill="#DDF4FF"/>
  <circle cx="226" cy="530" r="124" fill="#EAF4FF"/>
  <g filter="url(#aiShadow)">
    <rect x="132" y="132" width="696" height="376" rx="36" fill="#FFFFFF"/>
    <rect x="176" y="186" width="220" height="140" rx="26" fill="url(#aiCard)"/>
    <rect x="430" y="176" width="308" height="98" rx="24" fill="#F9FCFF"/>
    <rect x="176" y="352" width="258" height="112" rx="24" fill="#F9FCFF"/>
    <rect x="470" y="336" width="248" height="126" rx="24" fill="#F8FBFF"/>
  </g>
  <g>
    <rect x="214" y="230" width="84" height="48" rx="16" fill="#2563EB"/>
    <circle cx="256" cy="254" r="24" fill="#38BDF8"/>
    <rect x="320" y="224" width="48" height="10" rx="5" fill="#DDEBFD"/>
    <rect x="320" y="244" width="56" height="8" rx="4" fill="#EAF4FF"/>
  </g>
  <rect x="462" y="202" width="236" height="14" rx="7" fill="#DDEBFD"/>
  <rect x="462" y="228" width="174" height="12" rx="6" fill="#EAF4FF"/>
  <rect x="462" y="248" width="196" height="12" rx="6" fill="#EAF4FF"/>
  <path d="M224 392H392" stroke="#2563EB" stroke-width="14" stroke-linecap="round"/>
  <path d="M224 422H334" stroke="#38BDF8" stroke-width="12" stroke-linecap="round"/>
  <circle cx="650" cy="384" r="34" fill="#2563EB" fill-opacity="0.14"/>
  <path d="M650 366V402" stroke="#2563EB" stroke-width="10" stroke-linecap="round"/>
  <path d="M632 384H668" stroke="#2563EB" stroke-width="10" stroke-linecap="round"/>
  <path d="M518 414C552 378 582 362 620 358" stroke="#2563EB" stroke-width="12" stroke-linecap="round"/>
  <circle cx="700" cy="228" r="14" fill="#F59E0B" fill-opacity="0.28"/>
  <circle cx="280" cy="148" r="12" fill="#38BDF8" fill-opacity="0.24"/>
</svg>
